<?xml version="1.0" encoding="utf-8"?>
<!-- Generator: Adobe Illustrator 26.1.0, SVG Export Plug-In . SVG Version: 6.00 Build 0)  -->
<svg version="1.2" baseProfile="tiny" id="Layer_1" xmlns="http://www.w3.org/2000/svg" xmlns:xlink="http://www.w3.org/1999/xlink"
	 x="0px" y="0px" viewBox="0 0 1500 1500" overflow="visible" xml:space="preserve">
<rect x="259.21" y="549.55" fill="none" width="51.72" height="0"/>
<g>
	<g>
		<polygon fill="none" points="1500,1499.92 0,1500 0,0 		"/>
		<polygon fill="none" points="0,0 1500,0 1500,1499.92 		"/>
	</g>
	<g id="XMLID_00000152227152679069324870000000471480190857536926_">
		<path fill="#101234" stroke="#ED1C24" stroke-width="0.5" stroke-miterlimit="10" d="M1223.28,269.99
			c-3.35,84.29-7.16,75.01-15.04,88.5c-12.88,21.72-31.82,27.56-57.06,26.97c-23.57-0.55-218.73,4.53-218.73,4.53H810.02l0,0H688.75
			H572.26c-112.98,1.57-190.97,4.8-214.54,5.36c-22,0.52-52.46,8.13-65.34-13.59c-7.88-13.49-15.1-80.35-19.68-111.76h-19.3
			l0.78,139.46l0.78,105.3l1.06,130.33l18.97,0.37c4.58-31.45,10.23-45.44,18.1-58.93c12.87-21.72,29.02-45.42,50.39-55.73
			c21.39-10.29,112.44-10.79,226.56-13.52H683.3v30.84l4.71,45.76c-33.22,3.6-61.14,10.35-83.73,20.27
			c-20.54,9.09-40.07,23.53-58.58,43.34c-18.52,19.82-33.35,44.07-44.51,72.77c-14.2,37.08-21.3,79.23-21.3,126.47
			c0,54.51,9.51,102.22,28.53,143.1c19.02,40.89,44.38,70.6,76.08,89.14c26.64,15.58,61.25,25.76,103.84,30.55
			c-1.21,28.33-5.07,48.35-11.59,60.06c-0.11,0.15-0.21,0.3-0.32,0.44c-15.07,19.32-76.38,29.67-76.99,29.66l-0.33,0.81h-29.12
			h-0.75v19.46h0.75h359.33h0.75v-19.46h-1.08l-29.67,0c-0.02,0-0.04,0-0.06-0.01c-1.54-0.26-62.68-10.73-77.2-30.14
			c-0.03-0.04-0.05-0.08-0.08-0.12c-6.5-11.71-10.36-31.71-11.58-59.99c43.26-4.81,78.87-16.07,106.82-33.8
			c33.04-20.96,58.23-51.55,75.57-91.81c17.33-40.26,26.01-86.26,26.01-138c0-53.18-9.12-100.09-27.34-140.72
			c-18.23-40.62-42.92-70.4-74.05-89.34c-26.42-16.07-61.98-27.17-106.65-33.28l4.46-45.46l0.36-30.53h113.41
			c114.25,2.73,205.42,3.23,226.84,13.54c21.39,10.32,37.57,34.06,50.45,55.81c7.88,13.51,13.54,27.51,18.12,59.02l21.49-0.41
			l-0.78-126.76v-59.3V269.99H1223.28z M593.7,1023.37c-23.49-42.55-35.23-98.01-35.23-166.39c0-44,5.67-84.56,17.04-121.65
			s28.04-64.55,50.02-82.39c16.89-13.69,37.96-22.64,63.2-26.89v462.47C645.36,1081.28,613.68,1059.56,593.7,1023.37z
			 M900.43,683.22c26.4,39.1,39.61,97.02,39.61,173.76c0,77.12-13.21,135.2-39.61,174.3c-22.01,32.6-52.23,51.85-90.65,57.77v-463.6
			C848.2,631.38,878.42,650.62,900.43,683.22z"/>
		<g>
			<polygon fill="#101234" stroke="#EC008C" stroke-width="0.5" stroke-miterlimit="10" points="1350,433.71 1313.01,318.03 
				1313.01,603.8 1350,505.76 			"/>
			
				<rect x="1259.31" y="298.77" fill="#101234" stroke="#EC008C" stroke-width="0.5" stroke-miterlimit="10" width="36.99" height="324.31"/>
		</g>
		<g>
			<polygon fill="#101234" stroke="#EC008C" stroke-width="0.5" stroke-miterlimit="10" points="150,433.7 186.99,318.02 
				186.99,603.79 150,505.75 			"/>
			
				<rect x="203.7" y="298.76" fill="#101234" stroke="#EC008C" stroke-width="0.5" stroke-miterlimit="10" width="36.99" height="324.31"/>
		</g>
	</g>
</g>
</svg>
